<svg xmlns="http://www.w3.org/2000/svg" viewBox="334.93328857421875 280.9891357421875 801.8776245117188 844.9827880859375" width="400" height="400"><path fill="#A5834E" d="M944.75 372.379c103.441 82.912 152.343 225.486 130.205 356.197s-111.184 246.373 -227.809 309.42c44.752 29.95 97.594 49.884 151.419 48.435s108.266 -26.406 138.246 -71.118c-27.28 59.375 -87.151 102.478 -152.114 109.527 -57.498 6.244 -114.947 -14.097 -165.298 -42.558 -12.459 -7.038 -25.076 -14.752 -39.252 -16.648 -10.761 -1.43 -21.641 0.615 -32.412 1.985a275.777 275.777 0 0 1 -108.385 -7.545 443.269 443.269 0 0 0 126.075 -9.153c-45.377 -29.087 -83.915 -68.587 -131.773 -93.375s-111.572 -31.429 -151.965 4.249C377.63 878.973 321.125 740.072 337.832 608.08c10.92 -86.059 52.664 -167.194 113.964 -228.236a388.203 388.203 0 0 1 105.963 -75.079c44.315 -21.224 98.279 -26.525 146.803 -22.564a323.14 323.14 0 0 1 101.108 24.947c-64.745 -15.883 -133.779 -21.631 -197.611 -2.373s-121.627 66.8 -140.618 130.701c-16.936 56.873 -0.784 121.31 37.475 166.668s96.651 71.803 155.857 75.596c58.203 3.723 118.243 -12.826 174.113 3.872 31.985 9.56 61.072 30.586 77.154 59.831s17.869 66.76 1.608 95.916c-6.512 11.684 -16.985 22.555 -30.298 23.885s-27.697 -11.575 -23.577 -24.302c1.837 -5.678 6.582 -9.818 10.404 -14.394 20.4 -24.51 12.756 -64.08 -9.927 -86.545s-55.83 -30.774 -87.647 -32.76c-66.681 -4.169 -134.672 15.129 -199.775 0.159 -76.439 -17.581 -138.564 -85.85 -148.838 -163.63 -35.738 130.92 -19.854 275.241 43.511 395.241 46.102 -52.277 128.706 -58.005 193.501 -32.313S776.981 979 826.24 1028.319c53.21 -22.426 98.855 -63.822 123.196 -116.148s26.218 -115.443 1.896 -167.829c-25.811 -55.513 -79.914 -96.145 -139.844 -108.554 -45.357 -9.391 -92.323 -3.623 -138.564 -6.78s-95.758 -18.087 -121.568 -56.585c-24.441 -36.403 -20.569 -87.885 5.033 -123.484s69.877 -55.364 113.706 -56.247c10.801 -0.218 22.108 0.754 31.31 6.423s15.546 17.184 12.23 27.469c-3.445 10.721 -15.745 16.231 -27.012 16.549s-22.196 -3.19 -33.414 -4.351c-33.455 -3.445 -68.021 16.539 -81.74 47.243s-5.529 69.788 19.358 92.402c20.073 18.246 47.978 25.185 74.98 27.796 55.453 5.321 112.078 -4.964 166.777 5.579 77.909 14.93 145.542 74.652 170.063 150.079 22.406 -131.585 1.807 -270.149 -57.895 -389.503Z"/></svg>